IMDb : http://www.imdb.com/title/tt2091473/?ref_=sr_1

Language : English

Screens :  
http://www.piczend.com/image/1359428733_vlcsnap-2013-01-28-19h02m56s104.png 
http://www.piczend.com/image/1359428733_vlcsnap-2013-01-28-19h03m05s200.png 
http://www.piczend.com/image/1359428733_vlcsnap-2013-01-28-19h03m17s67.png 
http://www.piczend.com/image/1359428733_vlcsnap-2013-01-28-19h03m24s137.png 
http://www.piczend.com/image/1359428733_vlcsnap-2013-01-28-19h03m31s199.png

Info:
Format : MPEG-4
Format profile : Base Media / Version 2
Codec ID : mp42
File size : 928 MiB
Duration : 1h 46mn
Overall bit rate mode : Variable
Overall bit rate : 1 217 Kbps
Encoded date : UTC 2013-01-29 02:11:35
Tagged date : UTC 2013-01-29 02:43:49
Writing application : HandBrake 0.9.8 2012071700

Video
ID : 1
Format : AVC
Format/Info : Advanced Video Codec
Format profile : High@L3.0
Format settings, CABAC : Yes
Format settings, ReFrames : 4 frames
Codec ID : avc1
Codec ID/Info : Advanced Video Coding
Duration : 1h 46mn
Bit rate mode : Variable
Bit rate : 603 Kbps
Width : 720 pixels
Height : 384 pixels
Display aspect ratio : 1.85:1
Frame rate mode : Variable
Frame rate : 23.976 fps
Minimum frame rate : 23.974 fps
Maximum frame rate : 23.981 fps
Color space : YUV
Chroma subsampling : 4:2:0
Bit depth : 8 bits
Scan type : Progressive
Bits/(Pixel*Frame) : 0.091
Stream size : 460 MiB (50%)
Writing library : x264 core 120
Encoding settings : cabac=1 / ref=3 / deblock=1:0:0 / analyse=0x3:0x113 / me=hex / subme=7 / psy=1 / psy_rd=1.00:0.00 / mixed_ref=1 / me_range=16 / chroma_me=1 / trellis=1 / 8x8dct=1 / cqm=0 / deadzone=21,11 / fast_pskip=1 / chroma_qp_offset=-2 / threads=6 / sliced_threads=0 / nr=0 / decimate=1 / interlaced=0 / bluray_compat=0 / constrained_intra=0 / bframes=3 / b_pyramid=2 / b_adapt=1 / b_bias=0 / direct=1 / weightb=1 / open_gop=0 / weightp=2 / keyint=240 / keyint_min=24 / scenecut=40 / intra_refresh=0 / rc_lookahead=40 / rc=crf / mbtree=1 / crf=20.0 / qcomp=0.60 / qpmin=3 / qpmax=69 / qpstep=4 / ip_ratio=1.40 / aq=1:1.00
Encoded date : UTC 2013-01-29 02:11:35
Tagged date : UTC 2013-01-29 02:43:49
Color primaries : BT.601 NTSC
Transfer characteristics : BT.709
Matrix coefficients : BT.601

Audio #1
ID : 2
Format : AAC
Format/Info : Advanced Audio Codec
Format profile : LC
Codec ID : 40
Duration : 1h 46mn
Bit rate mode : Variable
Bit rate : 160 Kbps
Maximum bit rate : 255 Kbps
Channel(s) : 2 channels
Channel positions : Front: L R
Sampling rate : 48.0 KHz
Compression mode : Lossy
Delay relative to video : 83ms
Stream size : 122 MiB (13%)
Encoded date : UTC 2013-01-29 02:11:35
Tagged date : UTC 2013-01-29 02:43:48

Audio #2
ID : 3
Format : AC-3
Format/Info : Audio Coding 3
Mode extension : CM (complete main)
Format settings, Endianness : Big
Codec ID : ac-3
Duration : 1h 46mn
Bit rate mode : Constant
Bit rate : 448 Kbps
Channel(s) : 6 channels
Channel positions : Front: L C R, Side: L R, LFE
Sampling rate : 48.0 KHz
Bit depth : 16 bits
Compression mode : Lossy
Delay relative to video : 83ms
Stream size : 342 MiB (37%)
Encoded date : UTC 2013-01-29 02:11:35
Tagged date : UTC 2013-01-29 02:43:48
